<svg width="1602" height="500" viewBox="0 0 1602 500" fill="none" xmlns="http://www.w3.org/2000/svg">
<path fill-rule="evenodd" clip-rule="evenodd" d="M250 0C388.194 0 500 111.806 500 250C500 388.194 388.194 500 250 500C111.806 500 0 388.194 0 250C0 212.153 8.33333 176.042 23.6111 144.097C25 152.431 27.0833 160.764 30.5556 168.403C36.1111 181.597 43.75 193.056 53.8194 203.125C63.5417 212.847 75.3472 220.833 88.5417 226.389C101.042 231.597 114.931 234.375 129.167 234.375H150.694H156.25V228.819V186.806V181.25H150.694H129.167C121.875 181.25 114.931 179.861 109.028 177.083C102.431 174.306 96.5278 170.486 91.6667 165.625C86.8056 160.764 82.6389 154.861 79.8611 148.264C77.4306 142.014 75.6944 135.417 75.6944 128.472V128.125V127.778C75.6944 120.833 77.0833 113.889 79.8611 107.986C82.6389 101.389 86.4583 95.4861 91.3194 90.625C96.1806 85.7639 102.083 81.5972 108.681 79.1667C114.931 76.7361 121.875 75 128.819 75C136.111 75 142.708 76.3889 148.958 79.1667C155.556 81.9444 161.458 85.7639 166.319 90.625C171.181 95.4861 175.347 101.389 177.778 107.986C180.208 114.236 181.944 121.181 181.944 128.125V207.986V287.847C181.944 302.083 184.722 315.972 189.931 328.472C195.486 341.667 203.125 353.125 213.194 363.194C222.917 372.917 234.722 380.903 247.917 386.458C260.417 391.667 274.306 394.444 288.542 394.444C302.778 394.444 316.667 391.667 329.167 386.458C342.014 380.903 353.819 373.264 363.889 363.194C373.611 353.472 381.597 341.667 387.153 328.472C391.667 317.708 394.444 305.903 395.139 293.403H395.486V287.847V285.764V284.375C395.139 271.181 392.361 259.028 387.5 247.222C381.944 234.375 374.306 222.569 364.236 212.5C354.514 202.778 342.708 194.792 329.514 189.236C317.014 184.028 303.125 181.25 288.889 181.25H267.361H261.806V186.806V228.819V234.375H267.361H288.889C296.181 234.375 303.125 235.764 309.028 238.542C315.625 241.319 321.528 245.139 326.389 250.347C331.25 255.208 335.417 261.111 338.194 267.708C340.625 273.958 342.361 280.556 342.361 287.5V287.847V288.194C342.361 295.139 340.972 302.083 338.194 307.986C335.417 314.583 331.597 320.486 326.736 325.347C321.875 330.208 315.972 334.375 309.375 336.806C303.125 339.236 296.181 340.972 289.236 340.972C282.292 340.972 275.347 339.583 269.097 336.806C262.5 334.028 256.597 330.208 251.736 325.347C246.875 320.486 242.708 314.583 240.278 307.986C237.847 301.736 236.111 294.792 236.111 287.847V207.986V128.125C236.111 113.889 233.333 100 228.125 87.5C222.569 74.3056 214.931 62.8472 204.861 52.7778C195.139 43.0556 183.333 35.0694 170.139 29.5139C162.847 26.3889 154.861 24.3056 146.875 22.9167C177.778 7.98611 212.847 0 250 0Z" fill="#4250E4"/>
<path d="M1112.08 315.517C1140.19 315.517 1163.09 297.262 1163.09 260.405C1163.09 225.616 1138.8 205.638 1107.92 205.638C1094.04 205.638 1083.29 208.738 1072.53 215.627V297.606C1080.86 306.562 1095.08 315.517 1112.08 315.517ZM1022.92 181.182C1040.61 170.159 1073.57 159.826 1105.49 159.826C1173.84 159.826 1216.52 200.471 1216.52 263.85C1216.52 320.684 1181.82 362.018 1124.23 362.018C1103.41 362.018 1085.02 354.785 1072.88 345.14V443.309H1022.92V181.182Z" fill="white"/>
<path d="M678.731 205.982C706.835 205.982 729.734 224.238 729.734 261.094C729.734 295.883 705.447 315.861 674.567 315.861C660.689 315.861 649.933 312.761 639.178 305.872V224.238C647.505 214.937 661.73 205.982 678.731 205.982ZM589.562 340.662C607.257 351.684 640.218 362.018 672.139 362.018C740.49 362.018 783.166 321.373 783.166 257.994C783.166 201.159 748.47 159.825 690.875 159.825C670.057 159.825 651.668 167.059 639.524 176.703V93.0018H589.909V340.662H589.562Z" fill="white"/>
<path d="M904.257 200.815C932.707 200.815 949.015 219.071 948.668 242.838H853.254C858.458 217.693 874.418 200.815 904.257 200.815ZM964.628 305.528C953.178 313.451 934.789 320.684 912.931 320.684C882.398 320.684 859.152 304.839 854.641 275.561H995.16C997.242 268.328 998.283 261.094 998.283 249.038C998.283 194.96 956.301 159.481 906.338 159.481C842.498 159.481 803.638 204.604 803.638 260.75C803.638 321.717 845.62 362.018 908.073 362.018C935.136 362.018 962.893 354.44 982.323 337.907L964.628 305.528Z" fill="white"/>
<path d="M1244.62 357.195H1294.24V263.505V227.682V213.559H1376.82V164.303H1340.04C1318.53 164.303 1300.14 178.77 1294.24 198.404V182.903V163.959H1244.62V357.195Z" fill="white"/>
<path fill-rule="evenodd" clip-rule="evenodd" d="M1443.95 260.75C1443.95 292.439 1464.36 315.862 1496.17 315.862C1527.99 315.862 1548.4 292.439 1548.4 260.75C1548.4 229.06 1527.99 205.637 1496.17 205.637C1464.7 205.637 1443.95 229.405 1443.95 260.75ZM1391.04 260.75C1391.04 318.617 1432.2 362.018 1496.52 362.018C1560.5 362.018 1602 318.617 1602 260.75C1602 202.882 1560.85 159.481 1496.52 159.481C1432.2 159.826 1391.04 202.882 1391.04 260.75Z" fill="white"/>
</svg>
